<?xml version="1.0" encoding="utf-8" standalone="no"?>
<!DOCTYPE svg PUBLIC "-//W3C//DTD SVG 1.1//EN"
  "http://www.w3.org/Graphics/SVG/1.1/DTD/svg11.dtd">
<!-- Created with matplotlib (https://matplotlib.org/) -->
<svg height="290.461875pt" version="1.1" viewBox="0 0 505.417586 290.461875" width="505.417586pt" xmlns="http://www.w3.org/2000/svg" xmlns:xlink="http://www.w3.org/1999/xlink">
 <defs>
  <style type="text/css">
*{stroke-linecap:butt;stroke-linejoin:round;}
  </style>
 </defs>
 <g id="figure_1">
  <g id="patch_1">
   <path d="M 0 290.461875 
L 505.417586 290.461875 
L 505.417586 0 
L 0 0 
z
" style="fill:#ffffff;"/>
  </g>
  <g id="axes_1">
   <g id="patch_2">
    <path clip-path="url(#p74e2d8b885)" d="M 111.43 83.905116 
L 430.287143 83.905116 
L 430.287143 117.393488 
L 111.43 117.393488 
z
" style="fill:#c0c0c0;"/>
   </g>
   <g id="patch_3">
    <path clip-path="url(#p74e2d8b885)" d="M 111.43 125.765581 
L 142.84779 125.765581 
L 142.84779 159.253953 
L 111.43 159.253953 
z
" style="fill:#c0c0c0;"/>
   </g>
   <g id="patch_4">
    <path clip-path="url(#p74e2d8b885)" d="M 111.43 167.626047 
L 132.152372 167.626047 
L 132.152372 201.114419 
L 111.43 201.114419 
z
" style="fill:#c0c0c0;"/>
   </g>
   <g id="patch_5">
    <path clip-path="url(#p74e2d8b885)" d="M 111.43 209.486512 
L 174.26558 209.486512 
L 174.26558 242.974884 
L 111.43 242.974884 
z
" style="fill:#c0c0c0;"/>
   </g>
   <g id="matplotlib.axis_1"/>
   <g id="matplotlib.axis_2">
    <g id="ytick_1">
     <g id="text_1">
      <!-- Unvaccinated -->
      <defs>
       <path d="M 54.6875 71.578125 
L 64.15625 71.578125 
L 64.15625 30.21875 
Q 64.15625 19.4375 61.71875 13.078125 
Q 59.28125 6.734375 52.90625 2.75 
Q 46.53125 -1.21875 36.1875 -1.21875 
Q 26.125 -1.21875 19.71875 2.25 
Q 13.328125 5.71875 10.59375 12.28125 
Q 7.859375 18.84375 7.859375 30.21875 
L 7.859375 71.578125 
L 17.328125 71.578125 
L 17.328125 30.28125 
Q 17.328125 20.953125 19.0625 16.53125 
Q 20.796875 12.109375 25.015625 9.71875 
Q 29.25 7.328125 35.359375 7.328125 
Q 45.796875 7.328125 50.234375 12.0625 
Q 54.6875 16.796875 54.6875 30.28125 
z
" id="ArialMT-85"/>
       <path d="M 6.59375 0 
L 6.59375 51.859375 
L 14.5 51.859375 
L 14.5 44.484375 
Q 20.21875 53.03125 31 53.03125 
Q 35.6875 53.03125 39.625 51.34375 
Q 43.5625 49.65625 45.515625 46.921875 
Q 47.46875 44.1875 48.25 40.4375 
Q 48.734375 37.984375 48.734375 31.890625 
L 48.734375 0 
L 39.9375 0 
L 39.9375 31.546875 
Q 39.9375 36.921875 38.90625 39.578125 
Q 37.890625 42.234375 35.28125 43.8125 
Q 32.671875 45.40625 29.15625 45.40625 
Q 23.53125 45.40625 19.453125 41.84375 
Q 15.375 38.28125 15.375 28.328125 
L 15.375 0 
z
" id="ArialMT-110"/>
       <path d="M 21 0 
L 1.265625 51.859375 
L 10.546875 51.859375 
L 21.6875 20.796875 
Q 23.484375 15.765625 25 10.359375 
Q 26.171875 14.453125 28.265625 20.21875 
L 39.796875 51.859375 
L 48.828125 51.859375 
L 29.203125 0 
z
" id="ArialMT-118"/>
       <path d="M 40.4375 6.390625 
Q 35.546875 2.25 31.03125 0.53125 
Q 26.515625 -1.171875 21.34375 -1.171875 
Q 12.796875 -1.171875 8.203125 3 
Q 3.609375 7.171875 3.609375 13.671875 
Q 3.609375 17.484375 5.34375 20.625 
Q 7.078125 23.78125 9.890625 25.6875 
Q 12.703125 27.59375 16.21875 28.5625 
Q 18.796875 29.25 24.03125 29.890625 
Q 34.671875 31.15625 39.703125 32.90625 
Q 39.75 34.71875 39.75 35.203125 
Q 39.75 40.578125 37.25 42.78125 
Q 33.890625 45.75 27.25 45.75 
Q 21.046875 45.75 18.09375 43.578125 
Q 15.140625 41.40625 13.71875 35.890625 
L 5.125 37.0625 
Q 6.296875 42.578125 8.984375 45.96875 
Q 11.671875 49.359375 16.75 51.1875 
Q 21.828125 53.03125 28.515625 53.03125 
Q 35.15625 53.03125 39.296875 51.46875 
Q 43.453125 49.90625 45.40625 47.53125 
Q 47.359375 45.171875 48.140625 41.546875 
Q 48.578125 39.3125 48.578125 33.453125 
L 48.578125 21.734375 
Q 48.578125 9.46875 49.140625 6.21875 
Q 49.703125 2.984375 51.375 0 
L 42.1875 0 
Q 40.828125 2.734375 40.4375 6.390625 
z
M 39.703125 26.03125 
Q 34.90625 24.078125 25.34375 22.703125 
Q 19.921875 21.921875 17.671875 20.9375 
Q 15.4375 19.96875 14.203125 18.09375 
Q 12.984375 16.21875 12.984375 13.921875 
Q 12.984375 10.40625 15.640625 8.0625 
Q 18.3125 5.71875 23.4375 5.71875 
Q 28.515625 5.71875 32.46875 7.9375 
Q 36.421875 10.15625 38.28125 14.015625 
Q 39.703125 17 39.703125 22.796875 
z
" id="ArialMT-97"/>
       <path d="M 40.4375 19 
L 49.078125 17.875 
Q 47.65625 8.9375 41.8125 3.875 
Q 35.984375 -1.171875 27.484375 -1.171875 
Q 16.84375 -1.171875 10.375 5.78125 
Q 3.90625 12.75 3.90625 25.734375 
Q 3.90625 34.125 6.6875 40.421875 
Q 9.46875 46.734375 15.15625 49.875 
Q 20.84375 53.03125 27.546875 53.03125 
Q 35.984375 53.03125 41.359375 48.75 
Q 46.734375 44.484375 48.25 36.625 
L 39.703125 35.296875 
Q 38.484375 40.53125 35.375 43.15625 
Q 32.28125 45.796875 27.875 45.796875 
Q 21.234375 45.796875 17.078125 41.03125 
Q 12.9375 36.28125 12.9375 25.984375 
Q 12.9375 15.53125 16.9375 10.796875 
Q 20.953125 6.0625 27.390625 6.0625 
Q 32.5625 6.0625 36.03125 9.234375 
Q 39.5 12.40625 40.4375 19 
z
" id="ArialMT-99"/>
       <path d="M 6.640625 61.46875 
L 6.640625 71.578125 
L 15.4375 71.578125 
L 15.4375 61.46875 
z
M 6.640625 0 
L 6.640625 51.859375 
L 15.4375 51.859375 
L 15.4375 0 
z
" id="ArialMT-105"/>
       <path d="M 25.78125 7.859375 
L 27.046875 0.09375 
Q 23.34375 -0.6875 20.40625 -0.6875 
Q 15.625 -0.6875 12.984375 0.828125 
Q 10.359375 2.34375 9.28125 4.8125 
Q 8.203125 7.28125 8.203125 15.1875 
L 8.203125 45.015625 
L 1.765625 45.015625 
L 1.765625 51.859375 
L 8.203125 51.859375 
L 8.203125 64.703125 
L 16.9375 69.96875 
L 16.9375 51.859375 
L 25.78125 51.859375 
L 25.78125 45.015625 
L 16.9375 45.015625 
L 16.9375 14.703125 
Q 16.9375 10.9375 17.40625 9.859375 
Q 17.875 8.796875 18.921875 8.15625 
Q 19.96875 7.515625 21.921875 7.515625 
Q 23.390625 7.515625 25.78125 7.859375 
z
" id="ArialMT-116"/>
       <path d="M 42.09375 16.703125 
L 51.171875 15.578125 
Q 49.03125 7.625 43.21875 3.21875 
Q 37.40625 -1.171875 28.375 -1.171875 
Q 17 -1.171875 10.328125 5.828125 
Q 3.65625 12.84375 3.65625 25.484375 
Q 3.65625 38.578125 10.390625 45.796875 
Q 17.140625 53.03125 27.875 53.03125 
Q 38.28125 53.03125 44.875 45.953125 
Q 51.46875 38.875 51.46875 26.03125 
Q 51.46875 25.25 51.421875 23.6875 
L 12.75 23.6875 
Q 13.234375 15.140625 17.578125 10.59375 
Q 21.921875 6.0625 28.421875 6.0625 
Q 33.25 6.0625 36.671875 8.59375 
Q 40.09375 11.140625 42.09375 16.703125 
z
M 13.234375 30.90625 
L 42.1875 30.90625 
Q 41.609375 37.453125 38.875 40.71875 
Q 34.671875 45.796875 27.984375 45.796875 
Q 21.921875 45.796875 17.796875 41.75 
Q 13.671875 37.703125 13.234375 30.90625 
z
" id="ArialMT-101"/>
       <path d="M 40.234375 0 
L 40.234375 6.546875 
Q 35.296875 -1.171875 25.734375 -1.171875 
Q 19.53125 -1.171875 14.328125 2.25 
Q 9.125 5.671875 6.265625 11.796875 
Q 3.421875 17.921875 3.421875 25.875 
Q 3.421875 33.640625 6 39.96875 
Q 8.59375 46.296875 13.765625 49.65625 
Q 18.953125 53.03125 25.34375 53.03125 
Q 30.03125 53.03125 33.6875 51.046875 
Q 37.359375 49.078125 39.65625 45.90625 
L 39.65625 71.578125 
L 48.390625 71.578125 
L 48.390625 0 
z
M 12.453125 25.875 
Q 12.453125 15.921875 16.640625 10.984375 
Q 20.84375 6.0625 26.5625 6.0625 
Q 32.328125 6.0625 36.34375 10.765625 
Q 40.375 15.484375 40.375 25.140625 
Q 40.375 35.796875 36.265625 40.765625 
Q 32.171875 45.75 26.171875 45.75 
Q 20.3125 45.75 16.375 40.96875 
Q 12.453125 36.1875 12.453125 25.875 
z
" id="ArialMT-100"/>
      </defs>
      <g transform="translate(19.6075 105.659771)scale(0.14 -0.14)">
       <use xlink:href="#ArialMT-85"/>
       <use x="72.216797" xlink:href="#ArialMT-110"/>
       <use x="127.832031" xlink:href="#ArialMT-118"/>
       <use x="177.832031" xlink:href="#ArialMT-97"/>
       <use x="233.447266" xlink:href="#ArialMT-99"/>
       <use x="283.447266" xlink:href="#ArialMT-99"/>
       <use x="333.447266" xlink:href="#ArialMT-105"/>
       <use x="355.664062" xlink:href="#ArialMT-110"/>
       <use x="411.279297" xlink:href="#ArialMT-97"/>
       <use x="466.894531" xlink:href="#ArialMT-116"/>
       <use x="494.677734" xlink:href="#ArialMT-101"/>
       <use x="550.292969" xlink:href="#ArialMT-100"/>
      </g>
     </g>
    </g>
    <g id="ytick_2">
     <g id="text_2">
      <!-- One Prior MMR -->
      <defs>
       <path d="M 4.828125 34.859375 
Q 4.828125 52.6875 14.390625 62.765625 
Q 23.96875 72.859375 39.109375 72.859375 
Q 49.03125 72.859375 56.984375 68.109375 
Q 64.9375 63.375 69.109375 54.90625 
Q 73.296875 46.4375 73.296875 35.6875 
Q 73.296875 24.8125 68.890625 16.21875 
Q 64.5 7.625 56.4375 3.203125 
Q 48.390625 -1.21875 39.0625 -1.21875 
Q 28.953125 -1.21875 20.984375 3.65625 
Q 13.03125 8.546875 8.921875 16.984375 
Q 4.828125 25.4375 4.828125 34.859375 
z
M 14.59375 34.71875 
Q 14.59375 21.78125 21.546875 14.328125 
Q 28.515625 6.890625 39.015625 6.890625 
Q 49.703125 6.890625 56.609375 14.40625 
Q 63.53125 21.921875 63.53125 35.75 
Q 63.53125 44.484375 60.578125 51 
Q 57.625 57.515625 51.921875 61.109375 
Q 46.234375 64.703125 39.15625 64.703125 
Q 29.109375 64.703125 21.84375 57.78125 
Q 14.59375 50.875 14.59375 34.71875 
z
" id="ArialMT-79"/>
       <path id="ArialMT-32"/>
       <path d="M 7.71875 0 
L 7.71875 71.578125 
L 34.71875 71.578125 
Q 41.84375 71.578125 45.609375 70.90625 
Q 50.875 70.015625 54.4375 67.546875 
Q 58.015625 65.09375 60.1875 60.640625 
Q 62.359375 56.203125 62.359375 50.875 
Q 62.359375 41.75 56.546875 35.421875 
Q 50.734375 29.109375 35.546875 29.109375 
L 17.1875 29.109375 
L 17.1875 0 
z
M 17.1875 37.546875 
L 35.6875 37.546875 
Q 44.875 37.546875 48.734375 40.96875 
Q 52.59375 44.390625 52.59375 50.59375 
Q 52.59375 55.078125 50.3125 58.265625 
Q 48.046875 61.46875 44.34375 62.5 
Q 41.9375 63.140625 35.5 63.140625 
L 17.1875 63.140625 
z
" id="ArialMT-80"/>
       <path d="M 6.5 0 
L 6.5 51.859375 
L 14.40625 51.859375 
L 14.40625 44 
Q 17.4375 49.515625 20 51.265625 
Q 22.5625 53.03125 25.640625 53.03125 
Q 30.078125 53.03125 34.671875 50.203125 
L 31.640625 42.046875 
Q 28.421875 43.953125 25.203125 43.953125 
Q 22.3125 43.953125 20.015625 42.21875 
Q 17.71875 40.484375 16.75 37.40625 
Q 15.28125 32.71875 15.28125 27.15625 
L 15.28125 0 
z
" id="ArialMT-114"/>
       <path d="M 3.328125 25.921875 
Q 3.328125 40.328125 11.328125 47.265625 
Q 18.015625 53.03125 27.640625 53.03125 
Q 38.328125 53.03125 45.109375 46.015625 
Q 51.90625 39.015625 51.90625 26.65625 
Q 51.90625 16.65625 48.90625 10.90625 
Q 45.90625 5.171875 40.15625 2 
Q 34.421875 -1.171875 27.640625 -1.171875 
Q 16.75 -1.171875 10.03125 5.8125 
Q 3.328125 12.796875 3.328125 25.921875 
z
M 12.359375 25.921875 
Q 12.359375 15.96875 16.703125 11.015625 
Q 21.046875 6.0625 27.640625 6.0625 
Q 34.1875 6.0625 38.53125 11.03125 
Q 42.875 16.015625 42.875 26.21875 
Q 42.875 35.84375 38.5 40.796875 
Q 34.125 45.75 27.640625 45.75 
Q 21.046875 45.75 16.703125 40.8125 
Q 12.359375 35.890625 12.359375 25.921875 
z
" id="ArialMT-111"/>
       <path d="M 7.421875 0 
L 7.421875 71.578125 
L 21.6875 71.578125 
L 38.625 20.90625 
Q 40.96875 13.8125 42.046875 10.296875 
Q 43.265625 14.203125 45.84375 21.78125 
L 62.984375 71.578125 
L 75.734375 71.578125 
L 75.734375 0 
L 66.609375 0 
L 66.609375 59.90625 
L 45.796875 0 
L 37.25 0 
L 16.546875 60.9375 
L 16.546875 0 
z
" id="ArialMT-77"/>
       <path d="M 7.859375 0 
L 7.859375 71.578125 
L 39.59375 71.578125 
Q 49.171875 71.578125 54.140625 69.640625 
Q 59.125 67.71875 62.109375 62.828125 
Q 65.09375 57.953125 65.09375 52.046875 
Q 65.09375 44.4375 60.15625 39.203125 
Q 55.21875 33.984375 44.921875 32.5625 
Q 48.6875 30.765625 50.640625 29 
Q 54.78125 25.203125 58.5 19.484375 
L 70.953125 0 
L 59.03125 0 
L 49.5625 14.890625 
Q 45.40625 21.34375 42.71875 24.75 
Q 40.046875 28.171875 37.921875 29.53125 
Q 35.796875 30.90625 33.59375 31.453125 
Q 31.984375 31.78125 28.328125 31.78125 
L 17.328125 31.78125 
L 17.328125 0 
z
M 17.328125 39.984375 
L 37.703125 39.984375 
Q 44.1875 39.984375 47.84375 41.328125 
Q 51.515625 42.671875 53.421875 45.625 
Q 55.328125 48.578125 55.328125 52.046875 
Q 55.328125 57.125 51.640625 60.390625 
Q 47.953125 63.671875 39.984375 63.671875 
L 17.328125 63.671875 
z
" id="ArialMT-82"/>
      </defs>
      <g transform="translate(7.2 147.520236)scale(0.14 -0.14)">
       <use xlink:href="#ArialMT-79"/>
       <use x="77.783203" xlink:href="#ArialMT-110"/>
       <use x="133.398438" xlink:href="#ArialMT-101"/>
       <use x="189.013672" xlink:href="#ArialMT-32"/>
       <use x="216.796875" xlink:href="#ArialMT-80"/>
       <use x="283.496094" xlink:href="#ArialMT-114"/>
       <use x="316.796875" xlink:href="#ArialMT-105"/>
       <use x="339.013672" xlink:href="#ArialMT-111"/>
       <use x="394.628906" xlink:href="#ArialMT-114"/>
       <use x="427.929688" xlink:href="#ArialMT-32"/>
       <use x="455.712891" xlink:href="#ArialMT-77"/>
       <use x="539.013672" xlink:href="#ArialMT-77"/>
       <use x="622.314453" xlink:href="#ArialMT-82"/>
      </g>
     </g>
    </g>
    <g id="ytick_3">
     <g id="text_3">
      <!-- Two Prior MMR -->
      <defs>
       <path d="M 25.921875 0 
L 25.921875 63.140625 
L 2.34375 63.140625 
L 2.34375 71.578125 
L 59.078125 71.578125 
L 59.078125 63.140625 
L 35.40625 63.140625 
L 35.40625 0 
z
" id="ArialMT-84"/>
       <path d="M 16.15625 0 
L 0.296875 51.859375 
L 9.375 51.859375 
L 17.625 21.921875 
L 20.703125 10.796875 
Q 20.90625 11.625 23.390625 21.484375 
L 31.640625 51.859375 
L 40.671875 51.859375 
L 48.4375 21.78125 
L 51.03125 11.859375 
L 54 21.875 
L 62.890625 51.859375 
L 71.4375 51.859375 
L 55.21875 0 
L 46.09375 0 
L 37.84375 31.0625 
L 35.84375 39.890625 
L 25.34375 0 
z
" id="ArialMT-119"/>
      </defs>
      <g transform="translate(7.224063 189.380701)scale(0.14 -0.14)">
       <use xlink:href="#ArialMT-84"/>
       <use x="61.005859" xlink:href="#ArialMT-119"/>
       <use x="133.222656" xlink:href="#ArialMT-111"/>
       <use x="188.837891" xlink:href="#ArialMT-32"/>
       <use x="216.621094" xlink:href="#ArialMT-80"/>
       <use x="283.320312" xlink:href="#ArialMT-114"/>
       <use x="316.621094" xlink:href="#ArialMT-105"/>
       <use x="338.837891" xlink:href="#ArialMT-111"/>
       <use x="394.453125" xlink:href="#ArialMT-114"/>
       <use x="427.753906" xlink:href="#ArialMT-32"/>
       <use x="455.537109" xlink:href="#ArialMT-77"/>
       <use x="538.837891" xlink:href="#ArialMT-77"/>
       <use x="622.138672" xlink:href="#ArialMT-82"/>
      </g>
     </g>
    </g>
    <g id="ytick_4">
     <g id="text_4">
      <!-- Unknown MMR -->
      <defs>
       <path d="M 6.640625 0 
L 6.640625 71.578125 
L 15.4375 71.578125 
L 15.4375 30.765625 
L 36.234375 51.859375 
L 47.609375 51.859375 
L 27.78125 32.625 
L 49.609375 0 
L 38.765625 0 
L 21.625 26.515625 
L 15.4375 20.5625 
L 15.4375 0 
z
" id="ArialMT-107"/>
      </defs>
      <g transform="translate(8.744375 231.241166)scale(0.14 -0.14)">
       <use xlink:href="#ArialMT-85"/>
       <use x="72.216797" xlink:href="#ArialMT-110"/>
       <use x="127.832031" xlink:href="#ArialMT-107"/>
       <use x="177.832031" xlink:href="#ArialMT-110"/>
       <use x="233.447266" xlink:href="#ArialMT-111"/>
       <use x="289.0625" xlink:href="#ArialMT-119"/>
       <use x="361.279297" xlink:href="#ArialMT-110"/>
       <use x="416.894531" xlink:href="#ArialMT-32"/>
       <use x="444.677734" xlink:href="#ArialMT-77"/>
       <use x="527.978516" xlink:href="#ArialMT-77"/>
       <use x="611.279297" xlink:href="#ArialMT-82"/>
      </g>
     </g>
    </g>
   </g>
   <g id="text_5">
    <!-- 477 (73%) -->
    <defs>
     <path d="M 32.328125 0 
L 32.328125 17.140625 
L 1.265625 17.140625 
L 1.265625 25.203125 
L 33.9375 71.578125 
L 41.109375 71.578125 
L 41.109375 25.203125 
L 50.78125 25.203125 
L 50.78125 17.140625 
L 41.109375 17.140625 
L 41.109375 0 
z
M 32.328125 25.203125 
L 32.328125 57.46875 
L 9.90625 25.203125 
z
" id="ArialMT-52"/>
     <path d="M 4.734375 62.203125 
L 4.734375 70.65625 
L 51.078125 70.65625 
L 51.078125 63.8125 
Q 44.234375 56.546875 37.515625 44.484375 
Q 30.8125 32.421875 27.15625 19.671875 
Q 24.515625 10.6875 23.78125 0 
L 14.75 0 
Q 14.890625 8.453125 18.0625 20.40625 
Q 21.234375 32.375 27.171875 43.484375 
Q 33.109375 54.59375 39.796875 62.203125 
z
" id="ArialMT-55"/>
     <path d="M 23.390625 -21.046875 
Q 16.109375 -11.859375 11.078125 0.4375 
Q 6.0625 12.75 6.0625 25.921875 
Q 6.0625 37.546875 9.8125 48.1875 
Q 14.203125 60.546875 23.390625 72.796875 
L 29.6875 72.796875 
Q 23.78125 62.640625 21.875 58.296875 
Q 18.890625 51.5625 17.1875 44.234375 
Q 15.09375 35.109375 15.09375 25.875 
Q 15.09375 2.390625 29.6875 -21.046875 
z
" id="ArialMT-40"/>
     <path d="M 4.203125 18.890625 
L 12.984375 20.0625 
Q 14.5 12.59375 18.140625 9.296875 
Q 21.78125 6 27 6 
Q 33.203125 6 37.46875 10.296875 
Q 41.75 14.59375 41.75 20.953125 
Q 41.75 27 37.796875 30.921875 
Q 33.84375 34.859375 27.734375 34.859375 
Q 25.25 34.859375 21.53125 33.890625 
L 22.515625 41.609375 
Q 23.390625 41.5 23.921875 41.5 
Q 29.546875 41.5 34.03125 44.421875 
Q 38.53125 47.359375 38.53125 53.46875 
Q 38.53125 58.296875 35.25 61.46875 
Q 31.984375 64.65625 26.8125 64.65625 
Q 21.6875 64.65625 18.265625 61.421875 
Q 14.84375 58.203125 13.875 51.765625 
L 5.078125 53.328125 
Q 6.6875 62.15625 12.390625 67.015625 
Q 18.109375 71.875 26.609375 71.875 
Q 32.46875 71.875 37.390625 69.359375 
Q 42.328125 66.84375 44.9375 62.5 
Q 47.5625 58.15625 47.5625 53.265625 
Q 47.5625 48.640625 45.0625 44.828125 
Q 42.578125 41.015625 37.703125 38.765625 
Q 44.046875 37.3125 47.5625 32.6875 
Q 51.078125 28.078125 51.078125 21.140625 
Q 51.078125 11.765625 44.234375 5.25 
Q 37.40625 -1.265625 26.953125 -1.265625 
Q 17.53125 -1.265625 11.296875 4.34375 
Q 5.078125 9.96875 4.203125 18.890625 
z
" id="ArialMT-51"/>
     <path d="M 5.8125 54.390625 
Q 5.8125 62.0625 9.671875 67.421875 
Q 13.53125 72.796875 20.84375 72.796875 
Q 27.59375 72.796875 32 67.984375 
Q 36.421875 63.1875 36.421875 53.859375 
Q 36.421875 44.78125 31.953125 39.875 
Q 27.484375 34.96875 20.953125 34.96875 
Q 14.453125 34.96875 10.125 39.796875 
Q 5.8125 44.625 5.8125 54.390625 
z
M 21.09375 66.75 
Q 17.828125 66.75 15.65625 63.90625 
Q 13.484375 61.078125 13.484375 53.515625 
Q 13.484375 46.625 15.671875 43.8125 
Q 17.875 41.015625 21.09375 41.015625 
Q 24.421875 41.015625 26.59375 43.84375 
Q 28.765625 46.6875 28.765625 54.203125 
Q 28.765625 61.140625 26.5625 63.9375 
Q 24.359375 66.75 21.09375 66.75 
z
M 21.140625 -2.640625 
L 60.296875 72.796875 
L 67.4375 72.796875 
L 28.421875 -2.640625 
z
M 52.09375 16.796875 
Q 52.09375 24.515625 55.953125 29.859375 
Q 59.8125 35.203125 67.1875 35.203125 
Q 73.921875 35.203125 78.34375 30.390625 
Q 82.765625 25.59375 82.765625 16.265625 
Q 82.765625 7.171875 78.296875 2.265625 
Q 73.828125 -2.640625 67.234375 -2.640625 
Q 60.75 -2.640625 56.421875 2.21875 
Q 52.09375 7.078125 52.09375 16.796875 
z
M 67.4375 29.15625 
Q 64.109375 29.15625 61.9375 26.3125 
Q 59.765625 23.484375 59.765625 15.921875 
Q 59.765625 9.078125 61.953125 6.25 
Q 64.15625 3.421875 67.390625 3.421875 
Q 70.75 3.421875 72.921875 6.25 
Q 75.09375 9.078125 75.09375 16.609375 
Q 75.09375 23.53125 72.890625 26.34375 
Q 70.703125 29.15625 67.4375 29.15625 
z
" id="ArialMT-37"/>
     <path d="M 12.359375 -21.046875 
L 6.0625 -21.046875 
Q 20.65625 2.390625 20.65625 25.875 
Q 20.65625 35.0625 18.5625 44.09375 
Q 16.890625 51.421875 13.921875 58.15625 
Q 12.015625 62.546875 6.0625 72.796875 
L 12.359375 72.796875 
Q 21.53125 60.546875 25.921875 48.1875 
Q 29.6875 37.546875 29.6875 25.921875 
Q 29.6875 12.75 24.625 0.4375 
Q 19.578125 -11.859375 12.359375 -21.046875 
z
" id="ArialMT-41"/>
    </defs>
    <g transform="translate(433.629461 104.835349)scale(0.14 -0.14)">
     <use xlink:href="#ArialMT-52"/>
     <use x="55.615234" xlink:href="#ArialMT-55"/>
     <use x="111.230469" xlink:href="#ArialMT-55"/>
     <use x="166.845703" xlink:href="#ArialMT-32"/>
     <use x="194.628906" xlink:href="#ArialMT-40"/>
     <use x="227.929688" xlink:href="#ArialMT-55"/>
     <use x="283.544922" xlink:href="#ArialMT-51"/>
     <use x="339.160156" xlink:href="#ArialMT-37"/>
     <use x="428.076172" xlink:href="#ArialMT-41"/>
    </g>
   </g>
   <g id="text_6">
    <!-- 47 (7%) -->
    <g transform="translate(146.190108 146.695814)scale(0.14 -0.14)">
     <use xlink:href="#ArialMT-52"/>
     <use x="55.615234" xlink:href="#ArialMT-55"/>
     <use x="111.230469" xlink:href="#ArialMT-32"/>
     <use x="139.013672" xlink:href="#ArialMT-40"/>
     <use x="172.314453" xlink:href="#ArialMT-55"/>
     <use x="227.929688" xlink:href="#ArialMT-37"/>
     <use x="316.845703" xlink:href="#ArialMT-41"/>
    </g>
   </g>
   <g id="text_7">
    <!-- 31 (5%) -->
    <defs>
     <path d="M 37.25 0 
L 28.46875 0 
L 28.46875 56 
Q 25.296875 52.984375 20.140625 49.953125 
Q 14.984375 46.921875 10.890625 45.40625 
L 10.890625 53.90625 
Q 18.265625 57.375 23.78125 62.296875 
Q 29.296875 67.234375 31.59375 71.875 
L 37.25 71.875 
z
" id="ArialMT-49"/>
     <path d="M 4.15625 18.75 
L 13.375 19.53125 
Q 14.40625 12.796875 18.140625 9.390625 
Q 21.875 6 27.15625 6 
Q 33.5 6 37.890625 10.78125 
Q 42.28125 15.578125 42.28125 23.484375 
Q 42.28125 31 38.0625 35.34375 
Q 33.84375 39.703125 27 39.703125 
Q 22.75 39.703125 19.328125 37.765625 
Q 15.921875 35.84375 13.96875 32.765625 
L 5.71875 33.84375 
L 12.640625 70.609375 
L 48.25 70.609375 
L 48.25 62.203125 
L 19.671875 62.203125 
L 15.828125 42.96875 
Q 22.265625 47.46875 29.34375 47.46875 
Q 38.71875 47.46875 45.15625 40.96875 
Q 51.609375 34.46875 51.609375 24.265625 
Q 51.609375 14.546875 45.953125 7.46875 
Q 39.0625 -1.21875 27.15625 -1.21875 
Q 17.390625 -1.21875 11.203125 4.25 
Q 5.03125 9.71875 4.15625 18.75 
z
" id="ArialMT-53"/>
    </defs>
    <g transform="translate(135.49469 188.556279)scale(0.14 -0.14)">
     <use xlink:href="#ArialMT-51"/>
     <use x="55.615234" xlink:href="#ArialMT-49"/>
     <use x="111.230469" xlink:href="#ArialMT-32"/>
     <use x="139.013672" xlink:href="#ArialMT-40"/>
     <use x="172.314453" xlink:href="#ArialMT-53"/>
     <use x="227.929688" xlink:href="#ArialMT-37"/>
     <use x="316.845703" xlink:href="#ArialMT-41"/>
    </g>
   </g>
   <g id="text_8">
    <!-- 94 (14%) -->
    <defs>
     <path d="M 5.46875 16.546875 
L 13.921875 17.328125 
Q 14.984375 11.375 18.015625 8.6875 
Q 21.046875 6 25.78125 6 
Q 29.828125 6 32.875 7.859375 
Q 35.9375 9.71875 37.890625 12.8125 
Q 39.84375 15.921875 41.15625 21.1875 
Q 42.484375 26.46875 42.484375 31.9375 
Q 42.484375 32.515625 42.4375 33.6875 
Q 39.796875 29.5 35.234375 26.875 
Q 30.671875 24.265625 25.34375 24.265625 
Q 16.453125 24.265625 10.296875 30.703125 
Q 4.15625 37.15625 4.15625 47.703125 
Q 4.15625 58.59375 10.578125 65.234375 
Q 17 71.875 26.65625 71.875 
Q 33.640625 71.875 39.421875 68.109375 
Q 45.21875 64.359375 48.21875 57.390625 
Q 51.21875 50.4375 51.21875 37.25 
Q 51.21875 23.53125 48.234375 15.40625 
Q 45.265625 7.28125 39.375 3.03125 
Q 33.5 -1.21875 25.59375 -1.21875 
Q 17.1875 -1.21875 11.859375 3.4375 
Q 6.546875 8.109375 5.46875 16.546875 
z
M 41.453125 48.140625 
Q 41.453125 55.71875 37.421875 60.15625 
Q 33.40625 64.59375 27.734375 64.59375 
Q 21.875 64.59375 17.53125 59.8125 
Q 13.1875 55.03125 13.1875 47.40625 
Q 13.1875 40.578125 17.3125 36.296875 
Q 21.4375 32.03125 27.484375 32.03125 
Q 33.59375 32.03125 37.515625 36.296875 
Q 41.453125 40.578125 41.453125 48.140625 
z
" id="ArialMT-57"/>
    </defs>
    <g transform="translate(177.607898 230.416744)scale(0.14 -0.14)">
     <use xlink:href="#ArialMT-57"/>
     <use x="55.615234" xlink:href="#ArialMT-52"/>
     <use x="111.230469" xlink:href="#ArialMT-32"/>
     <use x="139.013672" xlink:href="#ArialMT-40"/>
     <use x="172.314453" xlink:href="#ArialMT-49"/>
     <use x="227.929688" xlink:href="#ArialMT-52"/>
     <use x="283.544922" xlink:href="#ArialMT-37"/>
     <use x="372.460938" xlink:href="#ArialMT-41"/>
    </g>
   </g>
   <g id="text_9">
    <!-- 649 total cases from Sep 1, 2018, to Aug 19, 2019 -->
    <defs>
     <path d="M 49.75 54.046875 
L 41.015625 53.375 
Q 39.84375 58.546875 37.703125 60.890625 
Q 34.125 64.65625 28.90625 64.65625 
Q 24.703125 64.65625 21.53125 62.3125 
Q 17.390625 59.28125 14.984375 53.46875 
Q 12.59375 47.65625 12.5 36.921875 
Q 15.671875 41.75 20.265625 44.09375 
Q 24.859375 46.4375 29.890625 46.4375 
Q 38.671875 46.4375 44.84375 39.96875 
Q 51.03125 33.5 51.03125 23.25 
Q 51.03125 16.5 48.125 10.71875 
Q 45.21875 4.9375 40.140625 1.859375 
Q 35.0625 -1.21875 28.609375 -1.21875 
Q 17.625 -1.21875 10.6875 6.859375 
Q 3.765625 14.9375 3.765625 33.5 
Q 3.765625 54.25 11.421875 63.671875 
Q 18.109375 71.875 29.4375 71.875 
Q 37.890625 71.875 43.28125 67.140625 
Q 48.6875 62.40625 49.75 54.046875 
z
M 13.875 23.1875 
Q 13.875 18.65625 15.796875 14.5 
Q 17.71875 10.359375 21.1875 8.171875 
Q 24.65625 6 28.46875 6 
Q 34.03125 6 38.03125 10.484375 
Q 42.046875 14.984375 42.046875 22.703125 
Q 42.046875 30.125 38.078125 34.390625 
Q 34.125 38.671875 28.125 38.671875 
Q 22.171875 38.671875 18.015625 34.390625 
Q 13.875 30.125 13.875 23.1875 
z
" id="ArialMT-54"/>
     <path d="M 6.390625 0 
L 6.390625 71.578125 
L 15.1875 71.578125 
L 15.1875 0 
z
" id="ArialMT-108"/>
     <path d="M 3.078125 15.484375 
L 11.765625 16.84375 
Q 12.5 11.625 15.84375 8.84375 
Q 19.1875 6.0625 25.203125 6.0625 
Q 31.25 6.0625 34.171875 8.515625 
Q 37.109375 10.984375 37.109375 14.3125 
Q 37.109375 17.28125 34.515625 19 
Q 32.71875 20.171875 25.53125 21.96875 
Q 15.875 24.421875 12.140625 26.203125 
Q 8.40625 27.984375 6.46875 31.125 
Q 4.546875 34.28125 4.546875 38.09375 
Q 4.546875 41.546875 6.125 44.5 
Q 7.71875 47.46875 10.453125 49.421875 
Q 12.5 50.921875 16.03125 51.96875 
Q 19.578125 53.03125 23.640625 53.03125 
Q 29.734375 53.03125 34.34375 51.265625 
Q 38.96875 49.515625 41.15625 46.5 
Q 43.359375 43.5 44.1875 38.484375 
L 35.59375 37.3125 
Q 35.015625 41.3125 32.203125 43.546875 
Q 29.390625 45.796875 24.265625 45.796875 
Q 18.21875 45.796875 15.625 43.796875 
Q 13.03125 41.796875 13.03125 39.109375 
Q 13.03125 37.40625 14.109375 36.03125 
Q 15.1875 34.625 17.484375 33.6875 
Q 18.796875 33.203125 25.25 31.453125 
Q 34.578125 28.953125 38.25 27.359375 
Q 41.9375 25.78125 44.03125 22.75 
Q 46.140625 19.734375 46.140625 15.234375 
Q 46.140625 10.84375 43.578125 6.953125 
Q 41.015625 3.078125 36.171875 0.953125 
Q 31.34375 -1.171875 25.25 -1.171875 
Q 15.140625 -1.171875 9.84375 3.03125 
Q 4.546875 7.234375 3.078125 15.484375 
z
" id="ArialMT-115"/>
     <path d="M 8.6875 0 
L 8.6875 45.015625 
L 0.921875 45.015625 
L 0.921875 51.859375 
L 8.6875 51.859375 
L 8.6875 57.375 
Q 8.6875 62.59375 9.625 65.140625 
Q 10.890625 68.5625 14.078125 70.671875 
Q 17.28125 72.796875 23.046875 72.796875 
Q 26.765625 72.796875 31.25 71.921875 
L 29.9375 64.265625 
Q 27.203125 64.75 24.75 64.75 
Q 20.75 64.75 19.09375 63.03125 
Q 17.4375 61.328125 17.4375 56.640625 
L 17.4375 51.859375 
L 27.546875 51.859375 
L 27.546875 45.015625 
L 17.4375 45.015625 
L 17.4375 0 
z
" id="ArialMT-102"/>
     <path d="M 6.59375 0 
L 6.59375 51.859375 
L 14.453125 51.859375 
L 14.453125 44.578125 
Q 16.890625 48.390625 20.9375 50.703125 
Q 25 53.03125 30.171875 53.03125 
Q 35.9375 53.03125 39.625 50.640625 
Q 43.3125 48.25 44.828125 43.953125 
Q 50.984375 53.03125 60.84375 53.03125 
Q 68.5625 53.03125 72.703125 48.75 
Q 76.859375 44.484375 76.859375 35.59375 
L 76.859375 0 
L 68.109375 0 
L 68.109375 32.671875 
Q 68.109375 37.9375 67.25 40.25 
Q 66.40625 42.578125 64.15625 43.984375 
Q 61.921875 45.40625 58.890625 45.40625 
Q 53.421875 45.40625 49.796875 41.765625 
Q 46.1875 38.140625 46.1875 30.125 
L 46.1875 0 
L 37.40625 0 
L 37.40625 33.6875 
Q 37.40625 39.546875 35.25 42.46875 
Q 33.109375 45.40625 28.21875 45.40625 
Q 24.515625 45.40625 21.359375 43.453125 
Q 18.21875 41.5 16.796875 37.734375 
Q 15.375 33.984375 15.375 26.90625 
L 15.375 0 
z
" id="ArialMT-109"/>
     <path d="M 4.5 23 
L 13.421875 23.78125 
Q 14.0625 18.40625 16.375 14.96875 
Q 18.703125 11.53125 23.578125 9.40625 
Q 28.46875 7.28125 34.578125 7.28125 
Q 39.984375 7.28125 44.140625 8.890625 
Q 48.296875 10.5 50.3125 13.296875 
Q 52.34375 16.109375 52.34375 19.4375 
Q 52.34375 22.796875 50.390625 25.3125 
Q 48.4375 27.828125 43.953125 29.546875 
Q 41.0625 30.671875 31.203125 33.03125 
Q 21.34375 35.40625 17.390625 37.5 
Q 12.25 40.1875 9.734375 44.15625 
Q 7.234375 48.140625 7.234375 53.078125 
Q 7.234375 58.5 10.296875 63.203125 
Q 13.375 67.921875 19.28125 70.359375 
Q 25.203125 72.796875 32.421875 72.796875 
Q 40.375 72.796875 46.453125 70.234375 
Q 52.546875 67.671875 55.8125 62.6875 
Q 59.078125 57.71875 59.328125 51.421875 
L 50.25 50.734375 
Q 49.515625 57.515625 45.28125 60.984375 
Q 41.0625 64.453125 32.8125 64.453125 
Q 24.21875 64.453125 20.28125 61.296875 
Q 16.359375 58.15625 16.359375 53.71875 
Q 16.359375 49.859375 19.140625 47.359375 
Q 21.875 44.875 33.421875 42.265625 
Q 44.96875 39.65625 49.265625 37.703125 
Q 55.515625 34.8125 58.484375 30.390625 
Q 61.46875 25.984375 61.46875 20.21875 
Q 61.46875 14.5 58.203125 9.4375 
Q 54.9375 4.390625 48.796875 1.578125 
Q 42.671875 -1.21875 35.015625 -1.21875 
Q 25.296875 -1.21875 18.71875 1.609375 
Q 12.15625 4.4375 8.421875 10.125 
Q 4.6875 15.828125 4.5 23 
z
" id="ArialMT-83"/>
     <path d="M 6.59375 -19.875 
L 6.59375 51.859375 
L 14.59375 51.859375 
L 14.59375 45.125 
Q 17.4375 49.078125 21 51.046875 
Q 24.5625 53.03125 29.640625 53.03125 
Q 36.28125 53.03125 41.359375 49.609375 
Q 46.4375 46.1875 49.015625 39.953125 
Q 51.609375 33.734375 51.609375 26.3125 
Q 51.609375 18.359375 48.75 11.984375 
Q 45.90625 5.609375 40.453125 2.21875 
Q 35.015625 -1.171875 29 -1.171875 
Q 24.609375 -1.171875 21.109375 0.6875 
Q 17.625 2.546875 15.375 5.375 
L 15.375 -19.875 
z
M 14.546875 25.640625 
Q 14.546875 15.625 18.59375 10.84375 
Q 22.65625 6.0625 28.421875 6.0625 
Q 34.28125 6.0625 38.453125 11.015625 
Q 42.625 15.96875 42.625 26.375 
Q 42.625 36.28125 38.546875 41.203125 
Q 34.46875 46.140625 28.8125 46.140625 
Q 23.1875 46.140625 18.859375 40.890625 
Q 14.546875 35.640625 14.546875 25.640625 
z
" id="ArialMT-112"/>
     <path d="M 8.890625 0 
L 8.890625 10.015625 
L 18.890625 10.015625 
L 18.890625 0 
Q 18.890625 -5.515625 16.9375 -8.90625 
Q 14.984375 -12.3125 10.75 -14.15625 
L 8.296875 -10.40625 
Q 11.078125 -9.1875 12.390625 -6.8125 
Q 13.71875 -4.4375 13.875 0 
z
" id="ArialMT-44"/>
     <path d="M 50.34375 8.453125 
L 50.34375 0 
L 3.03125 0 
Q 2.9375 3.171875 4.046875 6.109375 
Q 5.859375 10.9375 9.828125 15.625 
Q 13.8125 20.3125 21.34375 26.46875 
Q 33.015625 36.03125 37.109375 41.625 
Q 41.21875 47.21875 41.21875 52.203125 
Q 41.21875 57.421875 37.46875 61 
Q 33.734375 64.59375 27.734375 64.59375 
Q 21.390625 64.59375 17.578125 60.78125 
Q 13.765625 56.984375 13.71875 50.25 
L 4.6875 51.171875 
Q 5.609375 61.28125 11.65625 66.578125 
Q 17.71875 71.875 27.9375 71.875 
Q 38.234375 71.875 44.234375 66.15625 
Q 50.25 60.453125 50.25 52 
Q 50.25 47.703125 48.484375 43.546875 
Q 46.734375 39.40625 42.65625 34.8125 
Q 38.578125 30.21875 29.109375 22.21875 
Q 21.1875 15.578125 18.9375 13.203125 
Q 16.703125 10.84375 15.234375 8.453125 
z
" id="ArialMT-50"/>
     <path d="M 4.15625 35.296875 
Q 4.15625 48 6.765625 55.734375 
Q 9.375 63.484375 14.515625 67.671875 
Q 19.671875 71.875 27.484375 71.875 
Q 33.25 71.875 37.59375 69.546875 
Q 41.9375 67.234375 44.765625 62.859375 
Q 47.609375 58.5 49.21875 52.21875 
Q 50.828125 45.953125 50.828125 35.296875 
Q 50.828125 22.703125 48.234375 14.96875 
Q 45.65625 7.234375 40.5 3 
Q 35.359375 -1.21875 27.484375 -1.21875 
Q 17.140625 -1.21875 11.234375 6.203125 
Q 4.15625 15.140625 4.15625 35.296875 
z
M 13.1875 35.296875 
Q 13.1875 17.671875 17.3125 11.828125 
Q 21.4375 6 27.484375 6 
Q 33.546875 6 37.671875 11.859375 
Q 41.796875 17.71875 41.796875 35.296875 
Q 41.796875 52.984375 37.671875 58.78125 
Q 33.546875 64.59375 27.390625 64.59375 
Q 21.34375 64.59375 17.71875 59.46875 
Q 13.1875 52.9375 13.1875 35.296875 
z
" id="ArialMT-48"/>
     <path d="M 17.671875 38.8125 
Q 12.203125 40.828125 9.5625 44.53125 
Q 6.9375 48.25 6.9375 53.421875 
Q 6.9375 61.234375 12.546875 66.546875 
Q 18.171875 71.875 27.484375 71.875 
Q 36.859375 71.875 42.578125 66.421875 
Q 48.296875 60.984375 48.296875 53.171875 
Q 48.296875 48.1875 45.671875 44.5 
Q 43.0625 40.828125 37.75 38.8125 
Q 44.34375 36.671875 47.78125 31.875 
Q 51.21875 27.09375 51.21875 20.453125 
Q 51.21875 11.28125 44.71875 5.03125 
Q 38.234375 -1.21875 27.640625 -1.21875 
Q 17.046875 -1.21875 10.546875 5.046875 
Q 4.046875 11.328125 4.046875 20.703125 
Q 4.046875 27.6875 7.59375 32.390625 
Q 11.140625 37.109375 17.671875 38.8125 
z
M 15.921875 53.71875 
Q 15.921875 48.640625 19.1875 45.40625 
Q 22.46875 42.1875 27.6875 42.1875 
Q 32.765625 42.1875 36.015625 45.375 
Q 39.265625 48.578125 39.265625 53.21875 
Q 39.265625 58.0625 35.90625 61.359375 
Q 32.5625 64.65625 27.59375 64.65625 
Q 22.5625 64.65625 19.234375 61.421875 
Q 15.921875 58.203125 15.921875 53.71875 
z
M 13.09375 20.65625 
Q 13.09375 16.890625 14.875 13.375 
Q 16.65625 9.859375 20.171875 7.921875 
Q 23.6875 6 27.734375 6 
Q 34.03125 6 38.125 10.046875 
Q 42.234375 14.109375 42.234375 20.359375 
Q 42.234375 26.703125 38.015625 30.859375 
Q 33.796875 35.015625 27.4375 35.015625 
Q 21.234375 35.015625 17.15625 30.90625 
Q 13.09375 26.8125 13.09375 20.65625 
z
" id="ArialMT-56"/>
     <path d="M -0.140625 0 
L 27.34375 71.578125 
L 37.546875 71.578125 
L 66.84375 0 
L 56.0625 0 
L 47.703125 21.6875 
L 17.78125 21.6875 
L 9.90625 0 
z
M 20.515625 29.390625 
L 44.78125 29.390625 
L 37.3125 49.21875 
Q 33.890625 58.25 32.234375 64.0625 
Q 30.859375 57.171875 28.375 50.390625 
z
" id="ArialMT-65"/>
     <path d="M 40.578125 0 
L 40.578125 7.625 
Q 34.515625 -1.171875 24.125 -1.171875 
Q 19.53125 -1.171875 15.546875 0.578125 
Q 11.578125 2.34375 9.640625 5 
Q 7.71875 7.671875 6.9375 11.53125 
Q 6.390625 14.109375 6.390625 19.734375 
L 6.390625 51.859375 
L 15.1875 51.859375 
L 15.1875 23.09375 
Q 15.1875 16.21875 15.71875 13.8125 
Q 16.546875 10.359375 19.234375 8.375 
Q 21.921875 6.390625 25.875 6.390625 
Q 29.828125 6.390625 33.296875 8.421875 
Q 36.765625 10.453125 38.203125 13.9375 
Q 39.65625 17.4375 39.65625 24.078125 
L 39.65625 51.859375 
L 48.4375 51.859375 
L 48.4375 0 
z
" id="ArialMT-117"/>
     <path d="M 4.984375 -4.296875 
L 13.53125 -5.5625 
Q 14.0625 -9.515625 16.5 -11.328125 
Q 19.78125 -13.765625 25.4375 -13.765625 
Q 31.546875 -13.765625 34.859375 -11.328125 
Q 38.1875 -8.890625 39.359375 -4.5 
Q 40.046875 -1.8125 39.984375 6.78125 
Q 34.234375 0 25.640625 0 
Q 14.9375 0 9.078125 7.71875 
Q 3.21875 15.4375 3.21875 26.21875 
Q 3.21875 33.640625 5.90625 39.90625 
Q 8.59375 46.1875 13.6875 49.609375 
Q 18.796875 53.03125 25.6875 53.03125 
Q 34.859375 53.03125 40.828125 45.609375 
L 40.828125 51.859375 
L 48.921875 51.859375 
L 48.921875 7.03125 
Q 48.921875 -5.078125 46.453125 -10.125 
Q 44 -15.1875 38.640625 -18.109375 
Q 33.296875 -21.046875 25.484375 -21.046875 
Q 16.21875 -21.046875 10.5 -16.875 
Q 4.78125 -12.703125 4.984375 -4.296875 
z
M 12.25 26.859375 
Q 12.25 16.65625 16.296875 11.96875 
Q 20.359375 7.28125 26.46875 7.28125 
Q 32.515625 7.28125 36.609375 11.9375 
Q 40.71875 16.609375 40.71875 26.5625 
Q 40.71875 36.078125 36.5 40.90625 
Q 32.28125 45.75 26.3125 45.75 
Q 20.453125 45.75 16.34375 40.984375 
Q 12.25 36.234375 12.25 26.859375 
z
" id="ArialMT-103"/>
    </defs>
    <g transform="translate(100.50625 50.3295)scale(0.16 -0.16)">
     <use xlink:href="#ArialMT-54"/>
     <use x="55.615234" xlink:href="#ArialMT-52"/>
     <use x="111.230469" xlink:href="#ArialMT-57"/>
     <use x="166.845703" xlink:href="#ArialMT-32"/>
     <use x="194.628906" xlink:href="#ArialMT-116"/>
     <use x="222.412109" xlink:href="#ArialMT-111"/>
     <use x="278.027344" xlink:href="#ArialMT-116"/>
     <use x="305.810547" xlink:href="#ArialMT-97"/>
     <use x="361.425781" xlink:href="#ArialMT-108"/>
     <use x="383.642578" xlink:href="#ArialMT-32"/>
     <use x="411.425781" xlink:href="#ArialMT-99"/>
     <use x="461.425781" xlink:href="#ArialMT-97"/>
     <use x="517.041016" xlink:href="#ArialMT-115"/>
     <use x="567.041016" xlink:href="#ArialMT-101"/>
     <use x="622.65625" xlink:href="#ArialMT-115"/>
     <use x="672.65625" xlink:href="#ArialMT-32"/>
     <use x="700.439453" xlink:href="#ArialMT-102"/>
     <use x="728.222656" xlink:href="#ArialMT-114"/>
     <use x="761.523438" xlink:href="#ArialMT-111"/>
     <use x="817.138672" xlink:href="#ArialMT-109"/>
     <use x="900.439453" xlink:href="#ArialMT-32"/>
     <use x="928.222656" xlink:href="#ArialMT-83"/>
     <use x="994.921875" xlink:href="#ArialMT-101"/>
     <use x="1050.537109" xlink:href="#ArialMT-112"/>
     <use x="1106.152344" xlink:href="#ArialMT-32"/>
     <use x="1133.935547" xlink:href="#ArialMT-49"/>
     <use x="1189.550781" xlink:href="#ArialMT-44"/>
     <use x="1217.333984" xlink:href="#ArialMT-32"/>
     <use x="1245.117188" xlink:href="#ArialMT-50"/>
     <use x="1300.732422" xlink:href="#ArialMT-48"/>
     <use x="1356.347656" xlink:href="#ArialMT-49"/>
     <use x="1411.962891" xlink:href="#ArialMT-56"/>
     <use x="1467.578125" xlink:href="#ArialMT-44"/>
     <use x="1495.361328" xlink:href="#ArialMT-32"/>
     <use x="1523.144531" xlink:href="#ArialMT-116"/>
     <use x="1550.927734" xlink:href="#ArialMT-111"/>
     <use x="1606.542969" xlink:href="#ArialMT-32"/>
     <use x="1634.248047" xlink:href="#ArialMT-65"/>
     <use x="1700.947266" xlink:href="#ArialMT-117"/>
     <use x="1756.5625" xlink:href="#ArialMT-103"/>
     <use x="1812.177734" xlink:href="#ArialMT-32"/>
     <use x="1839.960938" xlink:href="#ArialMT-49"/>
     <use x="1895.576172" xlink:href="#ArialMT-57"/>
     <use x="1951.191406" xlink:href="#ArialMT-44"/>
     <use x="1978.974609" xlink:href="#ArialMT-32"/>
     <use x="2006.757812" xlink:href="#ArialMT-50"/>
     <use x="2062.373047" xlink:href="#ArialMT-48"/>
     <use x="2117.988281" xlink:href="#ArialMT-49"/>
     <use x="2173.603516" xlink:href="#ArialMT-57"/>
    </g>
    <!--  -->
    <g transform="translate(278.83 67.44)scale(0.16 -0.16)"/>
   </g>
  </g>
  <g id="text_10">
   <!-- NYC Measles Cases by Vaccination Status -->
   <defs>
    <path d="M 7.625 0 
L 7.625 71.578125 
L 17.328125 71.578125 
L 54.9375 15.375 
L 54.9375 71.578125 
L 64.015625 71.578125 
L 64.015625 0 
L 54.296875 0 
L 16.703125 56.25 
L 16.703125 0 
z
" id="ArialMT-78"/>
    <path d="M 27.875 0 
L 27.875 30.328125 
L 0.296875 71.578125 
L 11.8125 71.578125 
L 25.921875 50 
Q 29.828125 43.953125 33.203125 37.890625 
Q 36.421875 43.5 41.015625 50.53125 
L 54.890625 71.578125 
L 65.921875 71.578125 
L 37.359375 30.328125 
L 37.359375 0 
z
" id="ArialMT-89"/>
    <path d="M 58.796875 25.09375 
L 68.265625 22.703125 
Q 65.28125 11.03125 57.546875 4.90625 
Q 49.8125 -1.21875 38.625 -1.21875 
Q 27.046875 -1.21875 19.796875 3.484375 
Q 12.546875 8.203125 8.765625 17.140625 
Q 4.984375 26.078125 4.984375 36.328125 
Q 4.984375 47.515625 9.25 55.828125 
Q 13.53125 64.15625 21.40625 68.46875 
Q 29.296875 72.796875 38.765625 72.796875 
Q 49.515625 72.796875 56.828125 67.328125 
Q 64.15625 61.859375 67.046875 51.953125 
L 57.71875 49.75 
Q 55.21875 57.5625 50.484375 61.125 
Q 45.75 64.703125 38.578125 64.703125 
Q 30.328125 64.703125 24.78125 60.734375 
Q 19.234375 56.78125 16.984375 50.109375 
Q 14.75 43.453125 14.75 36.375 
Q 14.75 27.25 17.40625 20.4375 
Q 20.0625 13.625 25.671875 10.25 
Q 31.296875 6.890625 37.84375 6.890625 
Q 45.796875 6.890625 51.3125 11.46875 
Q 56.84375 16.0625 58.796875 25.09375 
z
" id="ArialMT-67"/>
    <path d="M 14.703125 0 
L 6.546875 0 
L 6.546875 71.578125 
L 15.328125 71.578125 
L 15.328125 46.046875 
Q 20.90625 53.03125 29.546875 53.03125 
Q 34.328125 53.03125 38.59375 51.09375 
Q 42.875 49.171875 45.625 45.671875 
Q 48.390625 42.1875 49.953125 37.25 
Q 51.515625 32.328125 51.515625 26.703125 
Q 51.515625 13.375 44.921875 6.09375 
Q 38.328125 -1.171875 29.109375 -1.171875 
Q 19.921875 -1.171875 14.703125 6.5 
z
M 14.59375 26.3125 
Q 14.59375 17 17.140625 12.84375 
Q 21.296875 6.0625 28.375 6.0625 
Q 34.125 6.0625 38.328125 11.0625 
Q 42.53125 16.0625 42.53125 25.984375 
Q 42.53125 36.140625 38.5 40.96875 
Q 34.46875 45.796875 28.765625 45.796875 
Q 23 45.796875 18.796875 40.796875 
Q 14.59375 35.796875 14.59375 26.3125 
z
" id="ArialMT-98"/>
    <path d="M 6.203125 -19.96875 
L 5.21875 -11.71875 
Q 8.109375 -12.5 10.25 -12.5 
Q 13.1875 -12.5 14.9375 -11.515625 
Q 16.703125 -10.546875 17.828125 -8.796875 
Q 18.65625 -7.46875 20.515625 -2.25 
Q 20.75 -1.515625 21.296875 -0.09375 
L 1.609375 51.859375 
L 11.078125 51.859375 
L 21.875 21.828125 
Q 23.96875 16.109375 25.640625 9.8125 
Q 27.15625 15.875 29.25 21.625 
L 40.328125 51.859375 
L 49.125 51.859375 
L 29.390625 -0.875 
Q 26.21875 -9.421875 24.46875 -12.640625 
Q 22.125 -17 19.09375 -19.015625 
Q 16.0625 -21.046875 11.859375 -21.046875 
Q 9.328125 -21.046875 6.203125 -19.96875 
z
" id="ArialMT-121"/>
    <path d="M 28.171875 0 
L 0.4375 71.578125 
L 10.6875 71.578125 
L 29.296875 19.578125 
Q 31.546875 13.328125 33.0625 7.859375 
Q 34.71875 13.71875 36.921875 19.578125 
L 56.25 71.578125 
L 65.921875 71.578125 
L 37.890625 0 
z
" id="ArialMT-86"/>
   </defs>
   <g transform="translate(82.251875 21.759375)scale(0.2 -0.2)">
    <use xlink:href="#ArialMT-78"/>
    <use x="72.216797" xlink:href="#ArialMT-89"/>
    <use x="138.916016" xlink:href="#ArialMT-67"/>
    <use x="211.132812" xlink:href="#ArialMT-32"/>
    <use x="238.916016" xlink:href="#ArialMT-77"/>
    <use x="322.216797" xlink:href="#ArialMT-101"/>
    <use x="377.832031" xlink:href="#ArialMT-97"/>
    <use x="433.447266" xlink:href="#ArialMT-115"/>
    <use x="483.447266" xlink:href="#ArialMT-108"/>
    <use x="505.664062" xlink:href="#ArialMT-101"/>
    <use x="561.279297" xlink:href="#ArialMT-115"/>
    <use x="611.279297" xlink:href="#ArialMT-32"/>
    <use x="639.0625" xlink:href="#ArialMT-67"/>
    <use x="711.279297" xlink:href="#ArialMT-97"/>
    <use x="766.894531" xlink:href="#ArialMT-115"/>
    <use x="816.894531" xlink:href="#ArialMT-101"/>
    <use x="872.509766" xlink:href="#ArialMT-115"/>
    <use x="922.509766" xlink:href="#ArialMT-32"/>
    <use x="950.292969" xlink:href="#ArialMT-98"/>
    <use x="1005.908203" xlink:href="#ArialMT-121"/>
    <use x="1055.908203" xlink:href="#ArialMT-32"/>
    <use x="1083.691406" xlink:href="#ArialMT-86"/>
    <use x="1150.28125" xlink:href="#ArialMT-97"/>
    <use x="1205.896484" xlink:href="#ArialMT-99"/>
    <use x="1255.896484" xlink:href="#ArialMT-99"/>
    <use x="1305.896484" xlink:href="#ArialMT-105"/>
    <use x="1328.113281" xlink:href="#ArialMT-110"/>
    <use x="1383.728516" xlink:href="#ArialMT-97"/>
    <use x="1439.34375" xlink:href="#ArialMT-116"/>
    <use x="1467.126953" xlink:href="#ArialMT-105"/>
    <use x="1489.34375" xlink:href="#ArialMT-111"/>
    <use x="1544.958984" xlink:href="#ArialMT-110"/>
    <use x="1600.574219" xlink:href="#ArialMT-32"/>
    <use x="1628.357422" xlink:href="#ArialMT-83"/>
    <use x="1695.056641" xlink:href="#ArialMT-116"/>
    <use x="1722.839844" xlink:href="#ArialMT-97"/>
    <use x="1778.455078" xlink:href="#ArialMT-116"/>
    <use x="1806.238281" xlink:href="#ArialMT-117"/>
    <use x="1861.853516" xlink:href="#ArialMT-115"/>
   </g>
  </g>
  <g id="text_11">
   <!-- Data: NYC Health, Image: carlos-afonso.github.io/measles -->
   <defs>
    <path d="M 6.34375 0 
L 6.34375 62.640625 
L 25.25 62.640625 
Q 56.5 62.640625 56.5 32.5625 
Q 56.5 18.65625 49.703125 10.0625 
Q 45.453125 4.640625 39.234375 2.3125 
Q 33.015625 0 22.65625 0 
z
M 15.96875 7.234375 
L 20.796875 7.234375 
Q 34.578125 7.234375 40.40625 12.703125 
Q 46.234375 18.171875 46.234375 31.0625 
Q 46.234375 44.140625 40.953125 49.78125 
Q 35.6875 55.421875 23.390625 55.421875 
L 15.96875 55.421875 
z
" id="LucidaConsole-68"/>
    <path d="M 40.765625 6.390625 
Q 32.03125 -0.921875 23.34375 -0.921875 
Q 16.0625 -0.921875 11.34375 3.21875 
Q 6.640625 7.375 6.640625 13.71875 
Q 6.640625 21.96875 13.96875 27 
Q 21.296875 32.03125 33.296875 32.03125 
L 39.265625 32.03125 
L 39.265625 36.578125 
Q 39.265625 42.1875 36.765625 44.578125 
Q 34.28125 46.96875 28.515625 46.96875 
Q 20.171875 46.96875 11.234375 42.28125 
L 11.234375 50.53125 
Q 21.484375 54.203125 30.46875 54.203125 
Q 40.578125 54.203125 44.75 50.1875 
Q 48.921875 46.1875 48.921875 36.375 
L 48.921875 14.15625 
Q 48.921875 9.375 49.953125 7.640625 
Q 50.984375 5.90625 53.8125 5.90625 
Q 54.734375 5.90625 56.84375 6.390625 
L 57.71875 0.640625 
Q 52.875 -0.921875 50.390625 -0.921875 
Q 43.265625 -0.921875 40.765625 6.390625 
z
M 39.265625 12.640625 
L 39.265625 26.03125 
L 36.375 26.03125 
Q 16.609375 26.03125 16.609375 15.328125 
Q 16.609375 11.46875 19.140625 9.125 
Q 21.6875 6.78125 25.875 6.78125 
Q 32.171875 6.78125 39.265625 12.640625 
z
" id="LucidaConsole-97"/>
    <path d="M 53.8125 0.046875 
Q 46.578125 -1.21875 39.84375 -1.21875 
Q 28.078125 -1.21875 23.828125 3 
Q 19.578125 7.234375 19.578125 19 
L 19.578125 44.578125 
L 6.34375 44.578125 
L 6.34375 51.8125 
L 19.578125 51.8125 
L 19.578125 63.234375 
L 29.25 63.234375 
L 29.25 51.8125 
L 52.734375 51.8125 
L 52.734375 44.578125 
L 29.25 44.578125 
L 29.25 17.4375 
Q 29.25 12.890625 29.8125 11.171875 
Q 30.375 9.46875 32.234375 8.203125 
Q 35.546875 6 41.890625 6 
Q 47.90625 6 53.8125 7.375 
z
" id="LucidaConsole-116"/>
    <path d="M 22.90625 38.578125 
L 22.90625 53.03125 
L 37.359375 53.03125 
L 37.359375 38.578125 
z
M 22.90625 0 
L 22.90625 14.453125 
L 37.359375 14.453125 
L 37.359375 0 
z
" id="LucidaConsole-58"/>
    <path id="LucidaConsole-32"/>
    <path d="M 7.234375 0 
L 7.234375 62.84375 
L 16.3125 62.84375 
L 45.0625 17.28125 
L 45.171875 17.28125 
L 45.171875 62.640625 
L 53.03125 62.640625 
L 53.03125 0 
L 44.140625 0 
L 15.1875 45.90625 
L 15.046875 45.90625 
L 15.046875 0 
z
" id="LucidaConsole-78"/>
    <path d="M 25.34375 0 
L 25.34375 25.640625 
L 1.5625 62.640625 
L 12.640625 62.640625 
L 30.859375 33.734375 
L 50.78125 62.640625 
L 59.90625 62.640625 
L 34.96875 25.640625 
L 34.96875 0 
z
" id="LucidaConsole-89"/>
    <path d="M 56.390625 1.953125 
Q 46.734375 -1.515625 38.1875 -1.515625 
Q 23.25 -1.515625 14.109375 7.4375 
Q 4.984375 16.40625 4.984375 31 
Q 4.984375 45.796875 14.0625 54.96875 
Q 23.140625 64.15625 37.796875 64.15625 
Q 46.09375 64.15625 55.5625 61.328125 
L 55.5625 52.484375 
Q 45.90625 56.9375 37.5 56.9375 
Q 27.78125 56.9375 21.5 49.796875 
Q 15.234375 42.671875 15.234375 31.640625 
Q 15.234375 20.515625 22.3125 13.421875 
Q 29.390625 6.34375 40.53125 6.34375 
Q 47.265625 6.34375 56.390625 9.859375 
z
" id="LucidaConsole-67"/>
    <path d="M 7.234375 0 
L 7.234375 62.640625 
L 16.84375 62.640625 
L 16.84375 35.25 
L 43.359375 35.25 
L 43.359375 62.640625 
L 53.03125 62.640625 
L 53.03125 0 
L 43.359375 0 
L 43.359375 28.03125 
L 16.84375 28.03125 
L 16.84375 0 
z
" id="LucidaConsole-72"/>
    <path d="M 53.609375 2.09375 
Q 43.609375 -1.21875 35.25 -1.21875 
Q 21.578125 -1.21875 14.234375 5.8125 
Q 6.890625 12.84375 6.890625 25.921875 
Q 6.890625 38.28125 13.9375 46.234375 
Q 21 54.203125 31.890625 54.203125 
Q 42.875 54.203125 48.0625 47.609375 
Q 53.265625 41.015625 53.265625 27.09375 
L 53.265625 24.03125 
L 17.140625 24.03125 
Q 18.21875 6 36.578125 6 
Q 44.34375 6 53.609375 9.71875 
z
M 17.4375 31.25 
L 43.015625 31.25 
L 43.015625 32.625 
Q 43.015625 46.96875 31.0625 46.96875 
Q 25.296875 46.96875 21.703125 42.8125 
Q 18.109375 38.671875 17.4375 31.25 
z
" id="LucidaConsole-101"/>
    <path d="M 28.90625 0 
L 28.90625 69.875 
L 8.453125 69.875 
L 8.453125 77.09375 
L 38.578125 77.09375 
L 38.578125 0 
z
" id="LucidaConsole-108"/>
    <path d="M 8.890625 0 
L 8.890625 77.09375 
L 18.5 77.09375 
L 18.5 53.03125 
L 18.5 43.0625 
Q 25.140625 54.203125 36.578125 54.203125 
Q 51.65625 54.203125 51.65625 36.28125 
L 51.65625 0 
L 42.046875 0 
L 42.046875 33.640625 
Q 42.046875 39.84375 40.109375 42.453125 
Q 38.1875 45.0625 33.640625 45.0625 
Q 26.421875 45.0625 18.5 34.671875 
L 18.5 0 
z
" id="LucidaConsole-104"/>
    <path d="M 22.90625 -15.671875 
L 22.90625 -10.84375 
Q 27.875 -10.15625 28.71875 -2.203125 
L 28.90625 0 
L 22.90625 0 
L 22.90625 14.453125 
L 37.359375 14.453125 
L 37.359375 5.71875 
Q 37.359375 -14.890625 22.90625 -15.671875 
z
" id="LucidaConsole-44"/>
    <path d="M 8.453125 0 
L 8.453125 7.234375 
L 25.296875 7.234375 
L 25.296875 55.421875 
L 8.453125 55.421875 
L 8.453125 62.640625 
L 51.8125 62.640625 
L 51.8125 55.421875 
L 34.96875 55.421875 
L 34.96875 7.234375 
L 51.8125 7.234375 
L 51.8125 0 
z
" id="LucidaConsole-73"/>
    <path d="M 4.546875 0 
L 4.546875 53.03125 
L 12.984375 53.03125 
L 12.984375 43.0625 
Q 19.1875 54.203125 24.8125 54.203125 
Q 31.984375 54.203125 34.03125 43.0625 
L 34.375 43.0625 
Q 39.453125 54.203125 46.296875 54.203125 
Q 51.265625 54.203125 53.515625 50.5625 
Q 55.765625 46.921875 55.765625 38.8125 
L 55.765625 0 
L 47.3125 0 
L 47.3125 38.421875 
Q 47.3125 42.78125 46.671875 44.34375 
Q 46.046875 45.90625 44.28125 45.90625 
Q 39.703125 45.90625 34.375 34.234375 
L 34.375 0 
L 25.921875 0 
L 25.921875 36.671875 
Q 25.921875 42.140625 25.28125 43.96875 
Q 24.65625 45.796875 22.75 45.796875 
Q 20.703125 45.796875 17.890625 42.453125 
Q 15.09375 39.109375 12.984375 34.125 
L 12.984375 0 
z
" id="LucidaConsole-109"/>
    <path d="M 10.359375 -17.71875 
L 11.375 -9.625 
Q 20.015625 -13.28125 27.4375 -13.28125 
Q 42.875 -13.28125 42.875 1.421875 
L 43.3125 10.984375 
Q 37.25 0 25.78125 0 
Q 16.703125 0 11.34375 6.90625 
Q 6 13.8125 6 25.53125 
Q 6 38.28125 12.203125 46.265625 
Q 18.40625 54.25 28.328125 54.25 
Q 36.078125 54.25 43.609375 46.96875 
L 43.609375 53.03125 
L 52.640625 53.03125 
L 52.640625 10.59375 
Q 52.640625 0.296875 51.265625 -4.90625 
Q 49.90625 -10.109375 46.140625 -14.109375 
Q 40.140625 -20.515625 27.34375 -20.515625 
Q 19.828125 -20.515625 10.359375 -17.71875 
z
M 43.015625 18.796875 
L 43.015625 39.65625 
Q 36.53125 46.96875 29.59375 46.96875 
Q 23.296875 46.96875 19.78125 41.5 
Q 16.265625 36.03125 16.265625 26.171875 
Q 16.265625 17.828125 19.328125 13.109375 
Q 22.40625 8.40625 27.9375 8.40625 
Q 36.46875 8.40625 43.015625 18.796875 
z
" id="LucidaConsole-103"/>
    <path d="M 53.859375 1.703125 
Q 45.3125 -1.21875 36.8125 -1.21875 
Q 22.953125 -1.21875 15.453125 6 
Q 7.953125 13.234375 7.953125 26.515625 
Q 7.953125 39.546875 15.34375 46.875 
Q 22.75 54.203125 35.9375 54.203125 
Q 44.34375 54.203125 52.875 51.65625 
L 52.875 43.609375 
Q 43.453125 46.96875 36.8125 46.96875 
Q 28.125 46.96875 23.171875 41.5 
Q 18.21875 36.03125 18.21875 26.515625 
Q 18.21875 16.890625 23.515625 11.4375 
Q 28.8125 6 38.140625 6 
Q 45.125 6 53.859375 9.28125 
z
" id="LucidaConsole-99"/>
    <path d="M 15.046875 0 
L 15.046875 53.03125 
L 24.65625 53.03125 
L 24.65625 43.0625 
Q 31.984375 54.203125 44.34375 54.203125 
Q 48.6875 54.203125 54.203125 52.984375 
L 54.203125 37.9375 
L 46.96875 37.9375 
L 46.96875 45.3125 
Q 44.828125 45.796875 43.0625 45.796875 
Q 37.546875 45.796875 33.375 43.234375 
Q 29.203125 40.671875 24.65625 34.515625 
L 24.65625 0 
z
" id="LucidaConsole-114"/>
    <path d="M 30.125 -1.21875 
Q 18.453125 -1.21875 11.78125 6.171875 
Q 5.125 13.578125 5.125 26.515625 
Q 5.125 39.40625 11.8125 46.796875 
Q 18.5 54.203125 30.125 54.203125 
Q 41.796875 54.203125 48.453125 46.796875 
Q 55.125 39.40625 55.125 26.515625 
Q 55.125 13.578125 48.453125 6.171875 
Q 41.796875 -1.21875 30.125 -1.21875 
z
M 30.125 6 
Q 37.0625 6 40.96875 11.421875 
Q 44.875 16.84375 44.875 26.515625 
Q 44.875 36.140625 40.96875 41.546875 
Q 37.0625 46.96875 30.125 46.96875 
Q 23.1875 46.96875 19.28125 41.546875 
Q 15.375 36.140625 15.375 26.515625 
Q 15.375 16.84375 19.28125 11.421875 
Q 23.1875 6 30.125 6 
z
" id="LucidaConsole-111"/>
    <path d="M 9.125 2.15625 
L 9.125 10.84375 
Q 20.3125 6 28.46875 6 
Q 34.328125 6 38.15625 8.375 
Q 42 10.75 42 14.359375 
Q 42 19 32.859375 21.921875 
L 22.5625 25.296875 
Q 10.5 29.203125 10.5 39.0625 
Q 10.5 46.296875 15.9375 50.25 
Q 21.390625 54.203125 31.34375 54.203125 
Q 38.8125 54.203125 48.6875 51.90625 
L 48.6875 44.09375 
Q 39.15625 46.96875 31.296875 46.96875 
Q 26.03125 46.96875 22.875 45.0625 
Q 19.734375 43.171875 19.734375 39.9375 
Q 19.734375 35.984375 26.90625 33.5 
L 39.0625 29.25 
Q 45.703125 26.90625 48.609375 23.65625 
Q 51.515625 20.40625 51.515625 15.234375 
Q 51.515625 7.71875 45.3125 3.25 
Q 39.109375 -1.21875 28.65625 -1.21875 
Q 19.53125 -1.21875 9.125 2.15625 
z
" id="LucidaConsole-115"/>
    <path d="M 10.25 26.515625 
L 10.25 33.734375 
L 50 33.734375 
L 50 26.515625 
z
" id="LucidaConsole-45"/>
    <path d="M 21.6875 0 
L 21.6875 44.578125 
L 7.234375 44.578125 
L 7.234375 51.8125 
L 21.6875 51.8125 
L 21.6875 57.421875 
Q 21.6875 68.5625 26.859375 73.4375 
Q 32.03125 78.328125 43.84375 78.328125 
Q 51.65625 78.328125 58.640625 76.21875 
L 58.640625 68.609375 
Q 51.515625 71.09375 44.578125 71.09375 
Q 37.203125 71.09375 34.25 68.28125 
Q 31.296875 65.484375 31.296875 58.453125 
L 31.296875 51.8125 
L 56.640625 51.8125 
L 56.640625 44.578125 
L 31.296875 44.578125 
L 31.296875 0 
z
" id="LucidaConsole-102"/>
    <path d="M 8.890625 0 
L 8.890625 53.03125 
L 18.5 53.03125 
L 18.5 43.0625 
Q 25.140625 54.203125 36.578125 54.203125 
Q 51.65625 54.203125 51.65625 36.28125 
L 51.65625 0 
L 42.046875 0 
L 42.046875 33.640625 
Q 42.046875 39.84375 40.109375 42.453125 
Q 38.1875 45.0625 33.640625 45.0625 
Q 26.421875 45.0625 18.5 34.671875 
L 18.5 0 
z
" id="LucidaConsole-110"/>
    <path d="M 22.90625 0 
L 22.90625 14.453125 
L 37.359375 14.453125 
L 37.359375 0 
z
" id="LucidaConsole-46"/>
    <path d="M 27.734375 0 
L 27.734375 45.796875 
L 8.453125 45.796875 
L 8.453125 53.03125 
L 37.359375 53.03125 
L 37.359375 0 
z
M 26.515625 65.046875 
L 26.515625 77.09375 
L 38.578125 77.09375 
L 38.578125 65.046875 
z
" id="LucidaConsole-105"/>
    <path d="M 51.375 53.03125 
L 51.375 0 
L 41.75 0 
L 41.75 9.96875 
Q 35.109375 -1.21875 23.640625 -1.21875 
Q 8.59375 -1.21875 8.59375 16.75 
L 8.59375 53.03125 
L 18.21875 53.03125 
L 18.21875 19.390625 
Q 18.21875 13.140625 20.109375 10.515625 
Q 22.015625 7.90625 26.609375 7.90625 
Q 33.84375 7.90625 41.75 18.359375 
L 41.75 53.03125 
z
" id="LucidaConsole-117"/>
    <path d="M 8.453125 -0.59375 
L 8.453125 77.09375 
L 18.0625 77.09375 
L 18.0625 43.0625 
Q 25.046875 54.203125 35.40625 54.203125 
Q 44.4375 54.203125 49.625 47.234375 
Q 54.828125 40.28125 54.828125 28.265625 
Q 54.828125 15.09375 48.671875 6.9375 
Q 42.53125 -1.21875 32.5625 -1.21875 
Q 24.03125 -1.21875 18.0625 6 
L 15.671875 -0.59375 
z
M 18.0625 13.234375 
Q 24.75 6 31.25 6 
Q 37.59375 6 41.078125 11.59375 
Q 44.578125 17.1875 44.578125 27.25 
Q 44.578125 46 33.40625 46 
Q 25.25 46 18.0625 35.84375 
z
" id="LucidaConsole-98"/>
    <path d="M 56.640625 77.09375 
L 11.71875 -14.453125 
L 3.65625 -14.453125 
L 48.578125 77.09375 
z
" id="LucidaConsole-47"/>
   </defs>
   <g transform="translate(70.99 280.8)scale(0.12 -0.12)">
    <use xlink:href="#LucidaConsole-68"/>
    <use x="60.253906" xlink:href="#LucidaConsole-97"/>
    <use x="120.507812" xlink:href="#LucidaConsole-116"/>
    <use x="180.761719" xlink:href="#LucidaConsole-97"/>
    <use x="241.015625" xlink:href="#LucidaConsole-58"/>
    <use x="301.269531" xlink:href="#LucidaConsole-32"/>
    <use x="361.523438" xlink:href="#LucidaConsole-78"/>
    <use x="421.777344" xlink:href="#LucidaConsole-89"/>
    <use x="482.03125" xlink:href="#LucidaConsole-67"/>
    <use x="542.285156" xlink:href="#LucidaConsole-32"/>
    <use x="602.539062" xlink:href="#LucidaConsole-72"/>
    <use x="662.792969" xlink:href="#LucidaConsole-101"/>
    <use x="723.046875" xlink:href="#LucidaConsole-97"/>
    <use x="783.300781" xlink:href="#LucidaConsole-108"/>
    <use x="843.554688" xlink:href="#LucidaConsole-116"/>
    <use x="903.808594" xlink:href="#LucidaConsole-104"/>
    <use x="964.0625" xlink:href="#LucidaConsole-44"/>
    <use x="1024.316406" xlink:href="#LucidaConsole-32"/>
    <use x="1084.570312" xlink:href="#LucidaConsole-73"/>
    <use x="1144.824219" xlink:href="#LucidaConsole-109"/>
    <use x="1205.078125" xlink:href="#LucidaConsole-97"/>
    <use x="1265.332031" xlink:href="#LucidaConsole-103"/>
    <use x="1325.585938" xlink:href="#LucidaConsole-101"/>
    <use x="1385.839844" xlink:href="#LucidaConsole-58"/>
    <use x="1446.09375" xlink:href="#LucidaConsole-32"/>
    <use x="1506.347656" xlink:href="#LucidaConsole-99"/>
    <use x="1566.601562" xlink:href="#LucidaConsole-97"/>
    <use x="1626.855469" xlink:href="#LucidaConsole-114"/>
    <use x="1687.109375" xlink:href="#LucidaConsole-108"/>
    <use x="1747.363281" xlink:href="#LucidaConsole-111"/>
    <use x="1807.617188" xlink:href="#LucidaConsole-115"/>
    <use x="1867.871094" xlink:href="#LucidaConsole-45"/>
    <use x="1928.125" xlink:href="#LucidaConsole-97"/>
    <use x="1988.378906" xlink:href="#LucidaConsole-102"/>
    <use x="2048.632812" xlink:href="#LucidaConsole-111"/>
    <use x="2108.886719" xlink:href="#LucidaConsole-110"/>
    <use x="2169.140625" xlink:href="#LucidaConsole-115"/>
    <use x="2229.394531" xlink:href="#LucidaConsole-111"/>
    <use x="2289.648438" xlink:href="#LucidaConsole-46"/>
    <use x="2349.902344" xlink:href="#LucidaConsole-103"/>
    <use x="2410.15625" xlink:href="#LucidaConsole-105"/>
    <use x="2470.410156" xlink:href="#LucidaConsole-116"/>
    <use x="2530.664062" xlink:href="#LucidaConsole-104"/>
    <use x="2590.917969" xlink:href="#LucidaConsole-117"/>
    <use x="2651.171875" xlink:href="#LucidaConsole-98"/>
    <use x="2711.425781" xlink:href="#LucidaConsole-46"/>
    <use x="2771.679688" xlink:href="#LucidaConsole-105"/>
    <use x="2831.933594" xlink:href="#LucidaConsole-111"/>
    <use x="2892.1875" xlink:href="#LucidaConsole-47"/>
    <use x="2952.441406" xlink:href="#LucidaConsole-109"/>
    <use x="3012.695312" xlink:href="#LucidaConsole-101"/>
    <use x="3072.949219" xlink:href="#LucidaConsole-97"/>
    <use x="3133.203125" xlink:href="#LucidaConsole-115"/>
    <use x="3193.457031" xlink:href="#LucidaConsole-108"/>
    <use x="3253.710938" xlink:href="#LucidaConsole-101"/>
    <use x="3313.964844" xlink:href="#LucidaConsole-115"/>
   </g>
  </g>
 </g>
 <defs>
  <clipPath id="p74e2d8b885">
   <rect height="180" width="334.8" x="111.43" y="73.44"/>
  </clipPath>
 </defs>
</svg>
